<svg id="Layer" xmlns="http://www.w3.org/2000/svg" viewBox="0 0 24 24"><defs><style>.cls-1{fill:#25314c;}</style></defs><path id="cake" class="cls-1" d="M20,10v1a3.69,3.69,0,0,0-2.59,1.75A3.436,3.436,0,0,0,14.66,11,3.335,3.335,0,0,0,12,12.64,3.335,3.335,0,0,0,9.34,11a3.436,3.436,0,0,0-2.75,1.75A3.69,3.69,0,0,0,4,11V10A2.652,2.652,0,0,1,7,7h.25V5a.75.75,0,0,1,1.5,0V7h2.5V5a.75.75,0,0,1,1.5,0V7h2.5V5a.75.75,0,0,1,1.5,0V7H17A2.652,2.652,0,0,1,20,10Zm-2,4.6a.748.748,0,0,1-1.37-.1c-.01-.02-.75-2-1.97-2-1.02,0-1.77,1.48-1.95,2a.754.754,0,0,1-1.42,0c0-.02-.74-2-1.95-2s-1.96,1.98-1.97,2a.757.757,0,0,1-.65.5A.769.769,0,0,1,6,14.6c-.47-.88-1.43-2.1-2-2.1v4.75H20V12.5C19.43,12.5,18.47,13.72,18,14.6ZM3,18.75V19a2.006,2.006,0,0,0,2,2H19a2.006,2.006,0,0,0,2-2v-.25Z"/></svg>