<svg id="Layer" xmlns="http://www.w3.org/2000/svg" view-box="0 0 24 24"><path id="food-tray" class="cls-1" d="M21,17.75V18a2.006,2.006,0,0,1-2,2H5a2.006,2.006,0,0,1-2-2v-.25ZM20,15a7.357,7.357,0,0,1-.1,1.25H4.1A7.357,7.357,0,0,1,4,15a7.994,7.994,0,0,1,7.026-7.935c-.025,0-.051,0-.076,0A1.479,1.479,0,0,1,10.5,6a1.5,1.5,0,0,1,3,0,1.479,1.479,0,0,1-.45,1.07c-.025,0-.051,0-.076,0A7.994,7.994,0,0,1,20,15Zm-3.29-3.4a5.338,5.338,0,0,0-3.58-2.34.751.751,0,0,0-.26,1.48,3.853,3.853,0,0,1,2.56,1.66.768.768,0,0,0,.64.35.831.831,0,0,0,.4-.11A.757.757,0,0,0,16.71,11.6Z"/></svg>