<svg id="Layer" xmlns="http://www.w3.org/2000/svg" view-box="0 0 24 24"><path id="mug-hot" class="cls-1" d="M16.75,9.26,4.5,9.25A1.252,1.252,0,0,0,3.25,10.5V18A3.383,3.383,0,0,0,7,21.75h6A3.383,3.383,0,0,0,16.75,18v-.26a4.247,4.247,0,0,0,0-8.48Zm0,6.98V10.76a2.752,2.752,0,0,1,0,5.48ZM12.5,7.75a.75.75,0,0,1-.532-1.279l.15-.151a.455.455,0,0,0,0-.64l-.3-.3a1.958,1.958,0,0,1,0-2.755l.15-.151a.75.75,0,0,1,1.064,1.058l-.15.151a.455.455,0,0,0,0,.64l.3.3a1.958,1.958,0,0,1,0,2.755l-.15.151A.75.75,0,0,1,12.5,7.75Zm-5,0a.75.75,0,0,1-.532-1.279l.15-.151a.455.455,0,0,0,0-.64l-.3-.3a1.958,1.958,0,0,1,0-2.755l.15-.151A.75.75,0,0,1,8.032,3.529l-.15.151a.455.455,0,0,0,0,.64l.3.3a1.958,1.958,0,0,1,0,2.755l-.15.151A.75.75,0,0,1,7.5,7.75Z"/></svg>