<svg id="Layer" xmlns="http://www.w3.org/2000/svg" viewBox="0 0 24 24"><defs><style>.cls-1{fill:#25314c;}</style></defs><path id="restaurant" class="cls-1" d="M10.006,10.814,7.092,13.728a.3.3,0,0,1-.424,0L6.3,13.357A11.992,11.992,0,0,1,3.25,6V4a.741.741,0,0,1,.46-.69.753.753,0,0,1,.82.16L9.72,8.66a5.54,5.54,0,0,0,.351,1.843A.293.293,0,0,1,10.006,10.814ZM21.53,20.47l-6.2-6.2a5.445,5.445,0,0,1-1.823-.341.293.293,0,0,0-.311.065l-2.923,2.914a.3.3,0,0,0,0,.425l.848.847a1.256,1.256,0,0,0,1.76,0L15,16.06l5.47,5.47a.748.748,0,0,0,1.06,0A.754.754,0,0,0,21.53,20.47Zm0-13a.748.748,0,0,0-1.06,0l-3,3-.69-.69,3-3A.736.736,0,0,0,19.95,6a.624.624,0,0,0-.17-.28.754.754,0,0,0-1.06,0l-3,3-.44-.44,3-3a.754.754,0,0,0,0-1.06A.624.624,0,0,0,18,4.05a.736.736,0,0,0-.78.17l-3,3-.69-.69,3-3a.754.754,0,0,0,0-1.06.748.748,0,0,0-1.06,0l-3,3a4.255,4.255,0,0,0-.52,5.42c.01.02.03.04.04.06L7.94,15,2.47,20.47a.754.754,0,0,0,0,1.06.748.748,0,0,0,1.06,0L9,16.06l4.05-4.05c.02.01.04.03.06.04a4.33,4.33,0,0,0,2.39.73,4.253,4.253,0,0,0,3.03-1.25l3-3A.754.754,0,0,0,21.53,7.47Z"/></svg>