<svg id="Layer" xmlns="http://www.w3.org/2000/svg" view-box="0 0 24 24"><path id="rocket-launch" class="cls-1" d="M7.208,19.856c-.791.791-3.545,1.494-4.089,1.627A.479.479,0,0,1,3,21.5a.5.5,0,0,1-.483-.629c.151-.567.942-3.438,1.73-4.225a2.221,2.221,0,0,1,1.595-.665,2.212,2.212,0,0,1,1.512.665A2.281,2.281,0,0,1,7.208,19.856Zm10-5.127L16.95,16.3a5.488,5.488,0,0,1-3.38,4.21l-2.38.95a.433.433,0,0,1-.19.04.49.49,0,0,1-.32-.12.484.484,0,0,1-.17-.48l.663-3.336c-.1.019-.189.045-.288.062a2.146,2.146,0,0,1-.366.032,2.255,2.255,0,0,1-1.588-.666L7.009,15.069a2.23,2.23,0,0,1-.635-1.954c.017-.1.043-.188.061-.284L3.12,13.49a.34.34,0,0,1-.1.01.465.465,0,0,1-.38-.18.5.5,0,0,1-.08-.51l.96-2.39a5.465,5.465,0,0,1,4.2-3.37l1.552-.258C11.832,3.854,15.855,2.25,21,2.25a.75.75,0,0,1,.75.75C21.75,8.146,20.146,12.168,17.208,14.729ZM18.969,9.7a4.977,4.977,0,0,0-4.664-4.664,10.506,10.506,0,0,0-6.453,8.34h0a.738.738,0,0,0,.217.637l1.922,1.923a.75.75,0,0,0,.638.217A10.506,10.506,0,0,0,18.969,9.7ZM13.5,8.25a2.25,2.25,0,1,0,2.25,2.25A2.25,2.25,0,0,0,13.5,8.25Z"/></svg>