<svg id="Layer" xmlns="http://www.w3.org/2000/svg" view-box="0 0 24 24"><path id="rocket" class="cls-1" d="M21.75,3A.75.75,0,0,0,21,2.25c-5.145,0-9.168,1.6-11.728,4.542L7.72,7.05a5.465,5.465,0,0,0-4.2,3.37l-.96,2.39a.5.5,0,0,0,.08.51.465.465,0,0,0,.38.18.34.34,0,0,0,.1-.01l3.315-.659c-.018.1-.044.186-.061.284a2.23,2.23,0,0,0,.635,1.954l1.922,1.923a2.255,2.255,0,0,0,1.588.666,2.146,2.146,0,0,0,.366-.032c.1-.017.191-.043.288-.062L10.51,20.9a.484.484,0,0,0,.17.48.49.49,0,0,0,.32.12.433.433,0,0,0,.19-.04l2.38-.95a5.488,5.488,0,0,0,3.38-4.21l.258-1.571C20.146,12.168,21.75,8.146,21.75,3ZM10.629,16.148a.75.75,0,0,1-.638-.217L8.069,14.008a.738.738,0,0,1-.217-.637h0a10.506,10.506,0,0,1,6.453-8.34A4.977,4.977,0,0,1,18.969,9.7,10.506,10.506,0,0,1,10.629,16.148ZM15.75,10.5A2.25,2.25,0,1,1,13.5,8.25,2.25,2.25,0,0,1,15.75,10.5Z"/></svg>