<svg id="Layer" xmlns="http://www.w3.org/2000/svg" viewBox="0 0 24 24"><path class="cls-1" d="M16.75,15.75h-1.5a.75.75,0,0,1,0-1.5h1.5a.75.75,0,0,1,0,1.5Z"/><path id="taxi" class="cls-2" d="M9.75,3a.75.75,0,0,1,.75-.75h3a.75.75,0,0,1,0,1.5h-3A.75.75,0,0,1,9.75,3ZM21,9.75H19.959l.121.95h0a2.07,2.07,0,0,1,.84.58,2.55,2.55,0,0,1,.55,2.03l-.39,3.12a3.223,3.223,0,0,1-1.83,2.74v1.08a.75.75,0,0,1-1.5,0V19.5H6.25v.75a.75.75,0,0,1-1.5,0V19.18a3.267,3.267,0,0,1-1.84-2.75l-.39-3.12a2.55,2.55,0,0,1,.55-2.03,2.053,2.053,0,0,1,.85-.59h0l.12-.94H3a.75.75,0,0,1,0-1.5H4.233l.107-.84c.24-1.49.52-3.16,3.7-3.16h7.92c3.18,0,3.46,1.67,3.7,3.14l.109.86H21a.75.75,0,0,1,0,1.5ZM9.5,15a.755.755,0,0,0-.75-.75H7.25a.75.75,0,0,0,0,1.5h1.5A.755.755,0,0,0,9.5,15Zm8,0a.755.755,0,0,0-.75-.75h-1.5a.75.75,0,0,0,0,1.5h1.5A.755.755,0,0,0,17.5,15Zm1.06-4.42-.38-2.97c-.23-1.39-.31-1.86-2.22-1.86H8.04c-1.91,0-1.99.47-2.22,1.88l-.38,2.95a32.29,32.29,0,0,0,6.56.67A32.193,32.193,0,0,0,18.56,10.58Z"/></svg>