<svg id="Layer" xmlns="http://www.w3.org/2000/svg" viewBox="0 0 24 24"><path id="cake" class="cls-1" d="M21,17.25h-.25V10A3.383,3.383,0,0,0,17,6.25h-.25V4a.75.75,0,0,0-1.5,0V6.25h-2.5V4a.75.75,0,0,0-1.5,0V6.25H8.75V4a.75.75,0,0,0-1.5,0V6.25H7A3.383,3.383,0,0,0,3.25,10v7.25H3a.75.75,0,0,0-.75.75v1A2.753,2.753,0,0,0,5,21.75H19A2.753,2.753,0,0,0,21.75,19V18A.75.75,0,0,0,21,17.25ZM7,7.75H17c1.577,0,2.25.673,2.25,2.25v1.154a4.767,4.767,0,0,0-1.845,1.6A3.4,3.4,0,0,0,14.663,11,3.319,3.319,0,0,0,12,12.642,3.32,3.32,0,0,0,9.336,11a3.4,3.4,0,0,0-2.742,1.751,4.757,4.757,0,0,0-1.844-1.6V10C4.75,8.423,5.423,7.75,7,7.75ZM4.75,12.924A7.118,7.118,0,0,1,6,14.6a.751.751,0,0,0,1.368-.1c.007-.02.756-2,1.967-2s1.95,1.98,1.957,2A.751.751,0,0,0,12,15h0a.751.751,0,0,0,.707-.5c.182-.518.931-2,1.955-2,1.212,0,1.96,1.982,1.967,2a.752.752,0,0,0,.652.495A.761.761,0,0,0,18,14.6a7.122,7.122,0,0,1,1.252-1.679V17.25H4.75ZM20.25,19A1.252,1.252,0,0,1,19,20.25H5A1.252,1.252,0,0,1,3.75,19v-.25h16.5Z"/></svg>