<svg id="Layer" xmlns="http://www.w3.org/2000/svg" view-box="0 0 24 24"><path id="food-tray" class="cls-1" d="M21,16.25h-.348a8.675,8.675,0,0,0-6.643-9.758A2.224,2.224,0,0,0,14.25,5.5a2.25,2.25,0,0,0-4.5,0,2.224,2.224,0,0,0,.241.992A8.675,8.675,0,0,0,3.348,16.25H3a.75.75,0,0,0-.75.75v1A2.753,2.753,0,0,0,5,20.75H19A2.753,2.753,0,0,0,21.75,18V17A.75.75,0,0,0,21,16.25ZM11.25,5.5a.75.75,0,1,1,.75.75A.75.75,0,0,1,11.25,5.5ZM4.75,15a7.25,7.25,0,0,1,14.5,0,7.369,7.369,0,0,1-.121,1.25H4.871A7.369,7.369,0,0,1,4.75,15Zm15.5,3A1.252,1.252,0,0,1,19,19.25H5A1.252,1.252,0,0,1,3.75,18v-.25h16.5Zm-3.543-6.4a.751.751,0,0,1-.242,1.033.739.739,0,0,1-.395.113.75.75,0,0,1-.637-.354,3.851,3.851,0,0,0-2.563-1.657.75.75,0,1,1,.26-1.478A5.328,5.328,0,0,1,16.707,11.6Z"/></svg>