<svg id="Layer" xmlns="http://www.w3.org/2000/svg" viewBox="0 0 24 24"><defs><style>.cls-1{fill:#25314c;}</style></defs><path id="restaurant" class="cls-1" d="M21.53,20.47a.75.75,0,1,1-1.06,1.06L15,16.061,12.88,18.18a1.252,1.252,0,0,1-1.761,0L9.97,17.03a.75.75,0,1,1,1.06-1.06l.97.969,2.47-2.469a.749.749,0,0,1,1.056,0h0l0,0h0l.007.006ZM6.97,14.03a.75.75,0,1,0,1.06-1.06l-.67-.67A10.411,10.411,0,0,1,4.75,6V5.811L8.479,9.54A.75.75,0,1,0,9.54,8.48L4.531,3.47a.764.764,0,0,0-.245-.162A.751.751,0,0,0,3.25,4h0V6A11.781,11.781,0,0,0,6.3,13.36Zm8.53-1.247a4.269,4.269,0,0,0,3.03-1.253l3-3a.75.75,0,0,0-1.06-1.06l-3,3a2.786,2.786,0,0,1-3.94-3.94l3-3a.75.75,0,0,0-1.06-1.06l-3,3a4.266,4.266,0,0,0-.479,5.478L2.47,20.47a.75.75,0,1,0,1.06,1.06l9.524-9.523A4.27,4.27,0,0,0,15.5,12.783ZM14.351,8.161a.748.748,0,0,0,1.06,0l2.87-2.879a.75.75,0,0,0-1.062-1.06L14.349,7.1A.749.749,0,0,0,14.351,8.161Zm1.5,1.5a.748.748,0,0,0,1.06,0l2.87-2.879a.75.75,0,0,0-1.062-1.06L15.849,8.6A.749.749,0,0,0,15.851,9.661Z"/></svg>