<svg id="Layer" xmlns="http://www.w3.org/2000/svg" view-box="0 0 24 24"><path id="rocket-launch" class="cls-1" d="M5.848,15.729a2.48,2.48,0,0,0-1.778.738h0c-.812.812-1.579,3.526-1.8,4.338A.752.752,0,0,0,3,21.748a.776.776,0,0,0,.179-.022c.779-.19,3.389-.876,4.206-1.693a2.531,2.531,0,0,0,.145-3.566A2.462,2.462,0,0,0,5.848,15.729Zm.476,3.244a7.623,7.623,0,0,1-2.223.942A8.686,8.686,0,0,1,5.13,17.528a.913.913,0,0,1,.683-.3.966.966,0,0,1,.657.3A1.04,1.04,0,0,1,6.324,18.973ZM13.5,7.5a3,3,0,1,0,3,3A3,3,0,0,0,13.5,7.5Zm0,4.5A1.5,1.5,0,1,1,15,10.5,1.5,1.5,0,0,1,13.5,12Zm8.25-9A.75.75,0,0,0,21,2.25c-4.962,0-8.878,1.493-11.448,4.233L7.66,6.8a5.732,5.732,0,0,0-4.4,3.531L2.3,12.72A.75.75,0,0,0,3,13.75a.813.813,0,0,0,.147-.014l3.232-.645,0,.024a2.23,2.23,0,0,0,.635,1.954l1.922,1.923a2.255,2.255,0,0,0,1.588.666,2.146,2.146,0,0,0,.366-.032l.025-.005-.645,3.232a.749.749,0,0,0,1.014.843l2.387-.958A5.736,5.736,0,0,0,17.2,16.344l.317-1.9C20.257,11.878,21.75,7.962,21.75,3ZM19.712,7.474a6.281,6.281,0,0,0-3.186-3.186,18.57,18.57,0,0,1,3.709-.523A18.57,18.57,0,0,1,19.712,7.474Zm-15.5,4.519.446-1.107A4.224,4.224,0,0,1,7.9,8.28l.3-.051a12.787,12.787,0,0,0-1.446,3.255Zm6.417,4.155a.75.75,0,0,1-.638-.217L8.069,14.008a.738.738,0,0,1-.217-.637h0a10.479,10.479,0,0,1,5.959-8.113c.064,0,.125-.008.189-.008A4.756,4.756,0,0,1,18.75,10c0,.059,0,.12,0,.182A10.478,10.478,0,0,1,10.629,16.148ZM15.72,16.1a4.23,4.23,0,0,1-2.609,3.244l-1.1.443.508-2.548a12.711,12.711,0,0,0,3.256-1.447Z"/></svg>