<svg id="Layer" xmlns="http://www.w3.org/2000/svg" view-box="0 0 24 24"><path id="taxi" class="cls-1" d="M20.049,10.433l-.087-.683H21a.75.75,0,0,0,0-1.5H19.77l-.111-.863c-.243-1.47-.519-3.137-3.7-3.137H8.042c-3.182,0-3.458,1.667-3.706,3.165L4.23,8.25H3a.75.75,0,0,0,0,1.5H4.038l-.088.683a2.525,2.525,0,0,0-1.062.681,2.786,2.786,0,0,0-.611,2.227l.39,3.124A3.494,3.494,0,0,0,4.75,19.427V21a.75.75,0,0,0,1.5,0V19.74c.047,0,.089.01.137.01H17.613c.046,0,.087-.009.132-.01V21a.75.75,0,0,0,1.5,0V19.429a3.494,3.494,0,0,0,2.088-2.964l.39-3.124a2.786,2.786,0,0,0-.611-2.227A2.523,2.523,0,0,0,20.049,10.433ZM8.042,5.75h7.916c1.91,0,1.988.474,2.217,1.855l.35,2.733A32.46,32.46,0,0,1,12,11a32.45,32.45,0,0,1-6.525-.662l.345-2.7C6.054,6.224,6.132,5.75,8.042,5.75Zm11.8,10.529a2.021,2.021,0,0,1-2.231,1.971H6.387a2.021,2.021,0,0,1-2.231-1.971l-.39-3.124a1.314,1.314,0,0,1,.247-1.049,1.215,1.215,0,0,1,.909-.355A32.846,32.846,0,0,0,12,12.5a32.846,32.846,0,0,0,7.078-.749,1.215,1.215,0,0,1,.909.355,1.314,1.314,0,0,1,.247,1.049ZM9.75,3a.75.75,0,0,1,.75-.75h3a.75.75,0,0,1,0,1.5h-3A.75.75,0,0,1,9.75,3ZM17.5,15a.75.75,0,0,1-.75.75h-1.5a.75.75,0,0,1,0-1.5h1.5A.75.75,0,0,1,17.5,15Zm-8,0a.75.75,0,0,1-.75.75H7.25a.75.75,0,0,1,0-1.5h1.5A.75.75,0,0,1,9.5,15Z"/></svg>